<?xml version="1.0" encoding="UTF-8" standalone="no"?>
<!-- Created with Inkscape (http://www.inkscape.org/) -->

<svg
   width="68.961327mm"
   height="51.197067mm"
   viewBox="0 0 68.961327 51.197067"
   version="1.1"
   id="svg5"
   xml:space="preserve"
   inkscape:version="1.2 (dc2aedaf03, 2022-05-15)"
   sodipodi:docname="Knitting Yarn And Needles.svg"
   xmlns:inkscape="http://www.inkscape.org/namespaces/inkscape"
   xmlns:sodipodi="http://sodipodi.sourceforge.net/DTD/sodipodi-0.dtd"
   xmlns="http://www.w3.org/2000/svg"
   xmlns:svg="http://www.w3.org/2000/svg"
   xmlns:rdf="http://www.w3.org/1999/02/22-rdf-syntax-ns#"
   xmlns:cc="http://creativecommons.org/ns#"
   xmlns:dc="http://purl.org/dc/elements/1.1/"><title
     id="title183">Knitting Yarn And Needles</title><sodipodi:namedview
     id="namedview7"
     pagecolor="#ffffff"
     bordercolor="#666666"
     borderopacity="1.0"
     inkscape:showpageshadow="2"
     inkscape:pageopacity="0.0"
     inkscape:pagecheckerboard="0"
     inkscape:deskcolor="#d1d1d1"
     inkscape:document-units="mm"
     showgrid="false"
     inkscape:zoom="0.71624579"
     inkscape:cx="574.52345"
     inkscape:cy="434.90657"
     inkscape:window-width="1920"
     inkscape:window-height="991"
     inkscape:window-x="-9"
     inkscape:window-y="-9"
     inkscape:window-maximized="1"
     inkscape:current-layer="layer1" /><defs
     id="defs2" /><g
     inkscape:label="Lager 1"
     inkscape:groupmode="layer"
     id="layer1"
     transform="translate(46.837857,-33.638836)"><path
       style="fill:#000000;stroke-width:0.0454728"
       d="m -28.635943,84.766713 c -1.387196,-0.158845 -2.974955,-0.507601 -3.515139,-0.772116 -0.413488,-0.202473 -0.60016,-0.430394 -0.60016,-0.732781 0,-0.258238 0.0877,-0.422377 0.333138,-0.623489 0.634589,-0.519999 1.77799,-0.813643 3.645745,-0.936287 2.576965,-0.16921 5.413611,-0.0899 8.50343,0.237751 0.750204,0.07955 1.232782,0.101486 2.250907,0.102299 1.177332,9.13e-4 1.340895,-0.0085 1.786583,-0.102578 0.820225,-0.173229 1.245918,-0.381129 1.44333,-0.704903 0.105958,-0.173773 0.11571,-0.441508 0.02266,-0.621479 -0.118437,-0.229036 -0.632342,-0.409478 -1.683736,-0.59119 -2.194036,-0.379196 -4.249751,-0.411629 -8.776272,-0.13844 -2.355522,0.142159 -3.329069,0.181466 -4.47908,0.180831 -3.29565,-0.0018 -6.438703,-0.447095 -10.731608,-1.520314 -1.55006,-0.387515 -4.600504,-1.221087 -5.13844,-1.404147 -0.733832,-0.249728 -1.108365,-0.565412 -1.234307,-1.040394 -0.09026,-0.340401 0.02658,-0.641263 0.404713,-1.042098 0.765871,-0.811861 2.005057,-1.388109 3.703908,-1.72238 l 0.259617,-0.05108 -0.287468,-0.376762 c -0.746426,-0.978285 -0.901214,-1.874972 -0.471665,-2.732453 0.281795,-0.562535 0.859198,-1.073722 1.643816,-1.455289 0.958291,-0.466029 2.068291,-0.727337 4.734458,-1.114573 1.707169,-0.247951 3.014065,-0.47959 2.967655,-0.526001 -0.0085,-0.0085 -0.587562,-0.08826 -1.286728,-0.177162 -1.847254,-0.234887 -2.525078,-0.374272 -3.357459,-0.690423 -1.402278,-0.532601 -1.97177,-1.150759 -1.670735,-1.813492 0.04591,-0.101074 0.150828,-0.240446 0.233142,-0.309709 0.51797,-0.435846 1.927316,-0.849449 3.364689,-0.987441 0.709083,-0.06808 2.38113,-0.02937 3.046685,0.07053 1.653235,0.248148 2.549539,0.877582 2.733033,1.919283 0.129235,0.733681 -0.276346,1.375383 -1.117108,1.767475 l -0.316676,0.147685 0.202989,0.05297 c 1.466856,0.382751 3.018062,1.010895 4.386506,1.776268 1.313022,0.734371 1.991472,1.452238 2.102276,2.224418 l 0.03558,0.247919 0.340735,0.08152 c 0.187404,0.04486 1.149015,0.276542 2.136915,0.514896 3.033734,0.73195 3.708598,0.845138 4.472775,0.75018 0.63178,-0.07851 1.165861,-0.327885 1.165861,-0.544368 0,-0.204236 -0.31309,-0.44989 -0.841246,-0.660055 -1.306065,-0.519711 -4.340014,-1.793604 -4.626468,-1.942559 -1.037,-0.539225 -1.344485,-1.581017 -0.666693,-2.258809 0.314716,-0.314721 1.148974,-0.670886 1.928165,-0.82319 0.472278,-0.09231 0.460803,-0.06401 0.165231,-0.407431 -0.909071,-1.056227 -1.71984,-2.309461 -2.390991,-3.69582 -0.950548,-1.963493 -1.507871,-3.967025 -1.705113,-6.129748 -0.06355,-0.6968 -0.06095,-2.508382 0.0046,-3.19801 0.02891,-0.304425 0.05451,-0.64373 0.05684,-0.754004 l 0.0041,-0.200504 -7.548503,-1.395774 c -4.151673,-0.767676 -7.718854,-1.427055 -7.92706,-1.465284 l -0.378557,-0.06951 -0.202925,0.175632 c -0.451539,0.390804 -0.980477,0.587055 -1.579866,0.586183 -1.129062,-0.0018 -2.050727,-0.698275 -2.375684,-1.795641 -0.115532,-0.390137 -0.104034,-1.00327 0.02599,-1.386921 0.263432,-0.777172 0.814059,-1.328516 1.592798,-1.594862 0.368969,-0.126198 1.034931,-0.139861 1.399204,-0.02869 0.610859,0.186399 1.216186,0.663441 1.483921,1.169438 0.07261,0.137225 0.13575,0.254662 0.140309,0.26097 0.0046,0.0063 1.172923,0.22688 2.59636,0.490165 8.624952,1.595292 13.153616,2.428394 13.265831,2.440403 0.12554,0.01343 0.131899,0.0027 0.323989,-0.55471 0.37726,-1.094451 0.841215,-2.121091 1.385679,-3.066253 0.155912,-0.270663 0.266625,-0.508743 0.246019,-0.529071 -0.0206,-0.02033 -2.693908,-1.603413 -5.940681,-3.51797 -5.903207,-3.481007 -5.90322,-3.481012 -6.034726,-3.413004 -0.260756,0.134836 -0.731822,0.214742 -1.114007,0.188956 -1.785696,-0.12047 -2.829639,-1.978065 -2.016691,-3.588503 0.297422,-0.589189 1.000813,-1.119639 1.667748,-1.257695 1.24083,-0.256864 2.536301,0.538019 2.846312,1.746457 0.03846,0.14997 0.08187,0.344294 0.09643,0.431829 0.02604,0.156543 0.07068,0.185133 2.71857,1.74131 1.480651,0.870188 4.193407,2.468038 6.02835,3.550781 l 3.336254,1.968623 0.96093,-0.962547 c 0.528518,-0.529404 1.18374,-1.139162 1.456057,-1.355019 2.791666,-2.212902 5.90427,-3.485589 9.4407089,-3.86014 0.6744673,-0.07143 2.7360019,-0.07143 3.4104691,0 3.5291755,0.373779 6.63206818,1.640711 9.4083819,3.841507 0.7228186,0.572977 2.1204151,1.971492 2.7131576,2.714935 2.0808798,2.609945 3.3108793,5.518651 3.7784973,8.935428 0.042801,0.312688 0.077586,1.049161 0.092811,1.96459 l 0.024347,1.464393 0.2333662,0.0472 c 0.128349,0.02595 2.218255,0.414516 4.644237,0.86346 l 4.410871,0.816265 1.359966,0.636065 c 0.747979,0.349834 1.409432,0.685535 1.469897,0.745996 0.163317,0.163317 0.183644,0.424748 0.04852,0.624014 -0.05936,0.08754 -0.158319,0.182311 -0.219909,0.210609 -0.06159,0.02828 -0.79749,0.124184 -1.635329,0.21308 l -1.523342,0.161627 -4.582447,-0.84486 c -2.520346,-0.464667 -4.5929986,-0.834304 -4.6058938,-0.821408 -0.012882,0.01288 -0.093533,0.289135 -0.179195,0.613864 -0.085662,0.324729 -0.2457678,0.856348 -0.3557907,1.181374 l -0.2000339,0.590952 5.1208354,3.016148 5.120836,3.01615 1.083355,1.071785 c 0.595849,0.589481 1.114783,1.131387 1.15319,1.204232 0.09116,0.172914 0.05343,0.456737 -0.07954,0.59827 -0.223828,0.238253 -0.262957,0.234859 -1.864872,-0.161719 -0.810934,-0.20076 -1.525585,-0.387227 -1.588111,-0.414369 -0.06253,-0.02713 -2.348518,-1.367316 -5.079984,-2.978152 -2.7314754,-1.610841 -4.9759643,-2.928803 -4.9877541,-2.928803 -0.011785,0 -0.1571594,0.225254 -0.3230388,0.500567 -1.8565766,3.081389 -4.8351213,5.659578 -8.1849055,7.084733 -2.0774675,0.883852 -4.1846494,1.33878 -6.5026225,1.403859 -4.8523421,0.136238 -9.5059531,-1.714733 -12.9785961,-5.162212 l -0.47816,-0.474698 -0.360423,0.05518 c -1.203958,0.184302 -2.18913,0.706488 -2.283677,1.210449 -0.07715,0.41125 0.261719,0.935026 0.786975,1.216387 0.130816,0.07008 1.318343,0.573475 2.638943,1.118665 1.320604,0.545191 2.485748,1.044697 2.589211,1.11001 0.272801,0.17221 0.432578,0.402717 0.456381,0.658415 0.04718,0.506774 -0.478339,0.846683 -1.508451,0.975676 -0.802784,0.100531 -1.550544,-0.02681 -4.855535,-0.826839 -1.143245,-0.276743 -2.094885,-0.50317 -2.11476,-0.50317 -0.01987,0 -0.08355,0.103367 -0.141509,0.229711 -0.310249,0.676272 -1.37906,1.248152 -2.808975,1.502969 -0.681113,0.121375 -2.272892,0.165514 -3.287925,0.09117 -0.385323,-0.02823 -0.707096,-0.04481 -0.715044,-0.03686 -0.0079,0.0079 0.256155,0.123393 0.586904,0.25653 0.946382,0.380955 1.996863,0.848697 2.738592,1.219402 0.76425,0.381955 1.942988,1.075 2.244562,1.31969 0.369701,0.299971 0.461872,0.601266 0.275958,0.902082 -0.214834,0.34761 -1.204588,0.637444 -2.475051,0.724788 -1.37488,0.09452 -5.014403,-0.517473 -7.48029,-1.257818 -2.128916,-0.639171 -3.992842,-1.622444 -5.231868,-2.759952 l -0.298057,-0.273632 -0.452247,0.08208 c -1.49085,0.27059 -2.541522,0.711266 -3.404475,1.427914 -0.585658,0.486369 -0.640158,1.002407 -0.142063,1.345102 0.318133,0.218881 0.514878,0.287322 2.079062,0.723243 5.080176,1.415791 7.897542,2.018007 10.870934,2.323688 2.118561,0.217798 4.098398,0.210279 8.047891,-0.03056 2.589933,-0.157926 6.003376,-0.179482 7.174714,-0.04531 1.467075,0.168053 2.651263,0.399651 3.033282,0.593231 0.567971,0.287815 0.728862,0.77994 0.442116,1.352337 -0.254187,0.507396 -0.851995,0.793649 -2.025252,0.969774 -1.025379,0.153926 -1.977827,0.138221 -3.928421,-0.06479 -2.51084,-0.261313 -4.76737,-0.352237 -6.857467,-0.276305 -2.689053,0.09768 -3.589578,0.229356 -4.506227,0.658891 -0.951059,0.445664 -0.793151,0.888314 0.430901,1.207913 1.061416,0.277132 2.108411,0.455596 3.2024,0.545858 0.350141,0.02887 0.681301,0.06149 0.735906,0.07246 0.109461,0.02197 0.168698,0.147581 0.124248,0.263423 -0.036,0.0938 -0.549964,0.09441 -1.360355,0.0018 z m 0.393371,-7.336972 c 0.759042,-0.130647 1.279721,-0.329406 1.337177,-0.510437 0.04518,-0.142282 -0.06045,-0.249053 -0.575705,-0.582027 -1.323769,-0.855462 -2.449305,-1.40273 -5.064285,-2.462397 l -1.226541,-0.497031 -1.092578,-0.04934 c -1.136855,-0.05133 -3.283751,-0.02741 -4.639464,0.05165 -1.10207,0.06428 -1.944993,0.139806 -2.018966,0.180885 -0.04596,0.02553 0.06142,0.134818 0.386647,0.393517 1.148015,0.913182 2.529893,1.628765 4.247011,2.199248 1.305973,0.433884 3.531551,0.933533 5.252396,1.179168 1.204542,0.171937 1.167899,0.16883 2.098329,0.177953 0.595191,0.0058 0.902115,-0.01338 1.295979,-0.08119 z M -41.39109,73.153866 c 1.029335,-0.117272 2.572658,-0.194447 4.424835,-0.221275 l 2.037508,-0.02951 -0.526006,-0.219777 c -0.605245,-0.252875 -0.987543,-0.552513 -1.073607,-0.841456 -0.07315,-0.245586 -9.14e-4,-0.379983 0.32392,-0.600394 0.764483,-0.519144 1.656484,-0.745828 3.203099,-0.813985 1.796527,-0.07917 3.617757,0.09346 6.040345,0.572556 0.571081,0.112942 1.048735,0.194941 1.061452,0.182219 0.0574,-0.0574 -0.139609,-0.544327 -0.318055,-0.786125 -0.217643,-0.294919 -0.429892,-0.47976 -0.940476,-0.819033 -1.371924,-0.91162 -3.27751,-1.729917 -5.077376,-2.180319 l -0.656913,-0.16439 -0.6229,0.161851 c -0.802108,0.208415 -1.560054,0.343973 -3.328539,0.595305 -1.584584,0.225194 -2.175348,0.330457 -2.961063,0.527585 -1.960309,0.491828 -3.013909,1.252273 -3.229543,2.33096 -0.12268,0.613682 0.170895,1.353932 0.847542,2.137079 0.203304,0.235298 0.206118,0.235892 0.795777,0.168716 z m 12.118529,-0.0014 c 1.23793,-0.114139 2.403586,-0.48584 2.921953,-0.931747 0.218018,-0.18754 0.453736,-0.554678 0.392284,-0.610982 -0.04742,-0.04344 -1.656917,-0.369704 -2.477951,-0.502302 -1.16793,-0.188619 -2.151029,-0.279744 -3.2984,-0.305736 -1.903356,-0.04312 -3.004239,0.103555 -3.813149,0.508035 -0.225089,0.112549 -0.460414,0.24517 -0.52294,0.294704 -0.108132,0.08567 -0.110279,0.09626 -0.04399,0.21689 0.102668,0.1868 0.430677,0.363419 1.485465,0.799838 l 0.945838,0.391339 1.023141,0.07066 c 0.562727,0.03887 1.115226,0.07717 1.22777,0.08513 0.497424,0.03517 1.702419,0.02636 2.159965,-0.01581 z m 23.3503341,-1.29687 c 2.509232,-0.29664 4.8609758,-1.088384 6.9621142,-2.343887 0.6924877,-0.413785 0.7365362,-0.447998 0.67391,-0.523456 C 1.5533536,68.794955 0.78079945,66.969006 0.30388111,65.655907 0.06778356,65.005874 0.06397848,64.877109 0.28085879,64.877109 c 0.14274752,0 0.16978505,0.04321 0.34158912,0.545674 0.20565692,0.601504 0.68268949,1.798455 1.01164829,2.53838 0.1520843,0.342092 0.3047488,0.688126 0.3392457,0.768955 l 0.062727,0.146973 0.3976193,-0.292973 c 0.6894043,-0.507971 0.6825433,-0.501 0.5919157,-0.601143 C 2.8954864,67.839195 2.4174215,66.792397 2.2702614,66.329018 2.194242,66.08965 2.0959084,65.718232 2.051732,65.503654 1.984657,65.177769 1.981372,65.101526 2.03177,65.040782 c 0.072146,-0.08693 0.2024777,-0.09474 0.2651633,-0.0159 0.024849,0.03124 0.080816,0.220543 0.1243707,0.420627 0.1273902,0.585261 0.3672883,1.266 0.6428161,1.824081 0.1411533,0.285901 0.2727003,0.529746 0.2923332,0.541879 0.048269,0.02983 0.8860351,-0.731507 1.3563208,-1.232585 2.4048184,-2.562284 3.9515895,-5.631801 4.527988,-8.985628 0.2005819,-1.167108 0.2295791,-1.545131 0.2295791,-2.993039 0,-1.449611 -0.028778,-1.824048 -0.2308216,-3.00121 C 8.3176175,46.227264 4.8234047,41.541258 -0.10231667,39.070917 -0.62009963,38.81124 -1.6909756,38.348952 -1.7162316,38.374208 c -0.037183,0.03718 0.2518066,0.822857 0.4252095,1.155926 0.190464,0.365845 0.2049534,0.48542 0.065307,0.539011 -0.148028,0.0568 -0.238651,-0.03458 -0.4391553,-0.442897 -0.2541956,-0.517641 -0.4010452,-0.949579 -0.4089111,-1.202743 l -0.00598,-0.19299 -0.4092583,-0.134698 c -0.4025708,-0.132502 -1.216588,-0.366046 -1.275834,-0.366046 -0.087535,0 0.1858687,0.899574 0.4416814,1.453288 0.097973,0.212052 0.311788,0.584416 0.4751551,0.827475 0.2552189,0.379722 0.2899671,0.455129 0.2468368,0.535712 -0.075567,0.141203 -0.2397702,0.117436 -0.3657352,-0.05294 -0.4082944,-0.552238 -0.7278662,-1.150723 -0.9487936,-1.776857 -0.1614806,-0.457632 -0.2900813,-0.97669 -0.2557488,-1.03224 0.027545,-0.04458 -0.2539398,-0.108411 -1.0004614,-0.226916 -2.2722528,-0.360697 -4.5640883,-0.260335 -6.8891465,0.301693 -0.642075,0.155208 -1.955093,0.593062 -2.565354,0.855475 -3.880228,1.668511 -7.01125,4.637481 -8.825856,8.369048 -0.395528,0.813368 -0.923935,2.130231 -0.761943,1.898862 0.07123,-0.101733 1.309312,-0.338703 1.80807,-0.346071 0.442458,-0.0065 0.455129,-0.0037 0.469586,0.09811 0.02499,0.176207 -0.05964,0.221009 -0.478192,0.253186 -0.217315,0.01672 -0.67825,0.09333 -1.024297,0.170283 -0.346048,0.07695 -0.659841,0.128144 -0.697321,0.113759 -0.03746,-0.01439 -0.08532,-0.0726 -0.106332,-0.129377 -0.03193,-0.08634 -0.05897,-0.03627 -0.165167,0.305932 -0.128801,0.415037 -0.426963,1.538325 -0.412807,1.555199 0.0041,0.0051 0.185814,-0.06149 0.403475,-0.147914 0.775884,-0.308047 1.599197,-0.510104 2.603281,-0.638897 0.558707,-0.07166 0.585662,-0.07134 0.643442,0.0077 0.08027,0.109776 0.07655,0.139801 -0.03065,0.246983 -0.06339,0.06339 -0.151577,0.09095 -0.291054,0.09095 -0.7089,0 -2.791425,0.540102 -3.076184,0.797806 -0.04662,0.04221 -0.136362,0.0672 -0.210093,0.05855 l -0.128711,-0.01512 -0.07711,0.454732 c -0.291479,1.718854 -0.288835,3.988005 0.0067,5.716525 0.780625,4.566148 3.291086,8.576657 7.054459,11.269624 2.616295,1.872153 5.761043,2.981318 9.0679214,3.198294 0.5534173,0.03631 2.3376198,-0.01658 2.9330025,-0.08699 z m -3.279027,-0.259891 c -0.5584969,-0.705516 -0.9784621,-1.436397 -1.9662071,-3.421839 -0.905996,-1.821125 -1.396102,-2.8502 -1.918485,-4.028239 -1.432144,-3.229678 -2.258449,-5.98671 -2.545926,-8.494718 -0.07326,-0.639102 -0.07294,-0.657315 0.01347,-0.773038 0.124101,-0.166223 0.329,-0.162915 0.410254,0.0066 0.05166,0.107789 0.04917,0.143428 -0.018,0.257133 -0.0737,0.124773 -0.0736,0.165235 0.0018,0.738852 0.293279,2.228323 0.99429,4.618734 2.164929,7.382313 0.52131,1.230677 1.099462,2.460366 2.159352,4.592768 1.0009733,2.013859 1.3798687,2.68892 1.8968796,3.379589 0.2676208,0.357509 0.302474,0.449233 0.2069862,0.54472 -0.1044181,0.104418 -0.2173188,0.0531 -0.4051426,-0.184164 z m 1.8643968,-0.0095 C -7.8429873,71.18743 -8.4222544,70.365068 -8.9954737,69.23152 -9.380289,68.470554 -10.519761,66.008007 -11.399611,64.035857 c -1.330654,-2.98259 -2.027394,-5.155143 -2.345993,-7.315185 -0.09425,-0.639011 -0.07631,-0.756256 0.115723,-0.756256 0.141104,0 0.185065,0.08897 0.224669,0.454728 0.120831,1.11603 0.562371,2.893823 1.075234,4.329279 0.487799,1.36531 0.936661,2.417649 2.323509,5.447398 1.5914821,3.476809 1.9520875,4.130999 2.6992806,4.896925 0.3934076,0.40327 0.4512237,0.520944 0.2965996,0.603697 -0.1168839,0.06256 -0.099503,0.06843 -0.3262683,-0.110238 z m 0.8283787,-1.468344 c -2.651783,-5.033821 -4.1223516,-8.267578 -5.1912496,-11.415433 -0.261656,-0.770562 -0.265241,-0.787829 -0.181096,-0.871975 0.170987,-0.170991 0.256393,-0.07933 0.437114,0.46918 0.264994,0.804261 0.859555,2.382473 1.270192,3.371628 0.9602778,2.313129 2.0411803,4.547774 3.9842048,8.236882 0.396998,0.753757 0.7218137,1.39936 0.7218137,1.43467 0,0.0938 -0.094867,0.173339 -0.2067486,0.173339 -0.081757,0 -0.2173143,-0.227222 -0.8342303,-1.398296 z m 2.4598117,1.086608 c -0.074731,-0.04741 -1.3148441,-2.4066 -2.1427797,-4.076454 -1.3542606,-2.731379 -2.1811685,-4.704723 -2.893088,-6.904145 l -0.3065852,-0.947186 0.092076,-0.09208 c 0.1381431,-0.138143 0.2714213,-0.07444 0.3325035,0.158914 0.1305284,0.498657 0.7547439,2.292639 1.1026504,3.168995 0.8097827,2.039811 1.7925572,4.108034 3.4631737,7.28817 0.3386428,0.644634 0.6157192,1.211759 0.6157192,1.260271 0,0.04852 -0.039558,0.109397 -0.08796,0.135283 -0.1044135,0.05588 -0.1008551,0.05572 -0.1757096,0.0082 z m -8.1313553,-0.16313 c -0.01384,-0.03604 -0.01809,-0.102221 -0.0095,-0.147041 0.01786,-0.09281 1.191405,-0.83328 1.320622,-0.83328 0.04924,0 0.112568,0.06304 0.157059,0.156337 0.0696,0.145949 0.0693,0.16434 -0.0046,0.276843 -0.06285,0.09593 -0.102367,0.114637 -0.193721,0.09171 -0.08911,-0.02238 -0.218611,0.03266 -0.579239,0.246092 -0.467454,0.276665 -0.644434,0.330293 -0.690848,0.209343 z m 9.4507992,-0.536959 c -0.4074494,-0.601623 -1.2114355,-2.026229 -1.7386603,-3.080788 -0.9688012,-1.937795 -1.8756888,-4.326874 -2.4113962,-6.352496 -0.1648335,-0.623284 -0.1854987,-0.747791 -0.134338,-0.809445 0.034077,-0.04107 0.1111375,-0.06689 0.1765958,-0.05919 0.089732,0.01055 0.1257137,0.04985 0.158315,0.172823 0.1976311,0.745539 0.6531396,2.274678 0.8262866,2.773847 0.8346414,2.406172 1.9959073,4.851371 3.2566945,6.857419 0.2844536,0.45259 0.3167991,0.569679 0.1779023,0.644013 -0.1393033,0.07455 -0.1724345,0.059 -0.3113997,-0.146187 z M -13.53569,70.489791 c -0.111539,-0.111544 -0.0884,-0.175518 0.162988,-0.450575 0.45999,-0.503303 1.148092,-0.899136 1.874962,-1.078573 0.45143,-0.111448 0.550759,-0.08842 0.550759,0.127691 0,0.116606 -0.02056,0.135837 -0.181894,0.170169 -0.827488,0.176084 -1.329416,0.430609 -1.867083,0.946788 -0.203926,0.195777 -0.392709,0.355956 -0.419523,0.355956 -0.02681,0 -0.08091,-0.03216 -0.120209,-0.07146 z m 12.4594926,-0.423734 c -0.4262601,-0.67524 -1.382198,-2.563243 -1.8542515,-3.662198 -0.5339808,-1.243101 -1.2482528,-3.254833 -1.5144621,-4.265399 -0.091911,-0.348916 -0.052522,-0.45967 0.1548433,-0.435364 0.1091596,0.01279 0.1303365,0.06011 0.3317179,0.741232 0.7190866,2.432105 1.743959,4.859443 2.9453039,6.975752 0.32767525,0.577234 0.36082465,0.673101 0.26563832,0.768287 -0.099873,0.09987 -0.2157429,0.05677 -0.32878982,-0.12231 z M -15.21124,69.691145 c -0.04312,-0.02412 -0.0784,-0.09336 -0.0784,-0.153853 0,-0.194936 1.214542,-1.104907 2.003737,-1.501265 0.41579,-0.208823 1.093113,-0.430522 1.315305,-0.430522 0.164002,0 0.25489,0.106962 0.198417,0.233517 -0.03229,0.07239 -0.140272,0.119679 -0.454745,0.199175 -0.714857,0.180702 -1.396501,0.554975 -2.299021,1.262326 -0.53748,0.421259 -0.583589,0.447538 -0.685289,0.390622 z m 15.66463373,0.01827 C 0.37332721,69.680775 -0.25911055,68.40808 -0.6673639,67.454069 -1.0862971,66.475095 -1.5320941,65.250281 -1.8109657,64.312075 l -0.2149161,-0.723026 0.1023351,-0.08286 c 0.1593063,-0.129008 0.2519802,-0.04362 0.3642278,0.335518 0.5351913,1.807789 1.06439401,3.178923 1.87316721,4.853254 0.22298762,0.461643 0.39580577,0.864442 0.38403424,0.89512 -0.0289149,0.07538 -0.1720553,0.145246 -0.24448882,0.119337 z M -16.673322,68.89824 c -0.131748,-0.131743 -0.100115,-0.172261 0.496958,-0.636558 0.89032,-0.692323 2.235372,-1.506002 3.151454,-1.906449 0.447314,-0.19553 0.571575,-0.19558 0.590628,-1.69e-4 0.01297,0.133169 -4.57e-4,0.142912 -0.568409,0.409254 -1.067395,0.500626 -2.173344,1.183466 -3.066308,1.893207 -0.216063,0.171726 -0.424347,0.312231 -0.46285,0.312231 -0.03851,0 -0.10217,-0.03216 -0.141473,-0.07146 z m -1.814583,-1.095679 c -0.01667,-0.01667 -0.03033,-0.07801 -0.03033,-0.136307 0,-0.266849 1.929247,-1.554372 3.296198,-2.199792 0.554006,-0.261577 1.34353,-0.580016 1.693008,-0.68284 0.212523,-0.06253 0.331119,-0.01274 0.331119,0.138988 0,0.11671 -0.06969,0.159219 -0.546889,0.333545 -1.391608,0.508382 -2.833116,1.292881 -4.015088,2.185101 -0.475389,0.358847 -0.645882,0.443459 -0.728036,0.361305 z M 3.4529006,66.095771 C 3.2224993,65.613097 3.0344243,65.181935 3.0349633,65.137631 3.0363337,65.019304 3.247906,64.932545 3.329384,65.01686 c 0.1140839,0.118053 0.8490395,1.729862 0.8347008,1.830553 -0.010415,0.07298 -0.050361,0.102289 -0.153167,0.112343 -0.1385496,0.01357 -0.1408016,0.01005 -0.5580172,-0.863985 z m -23.3055226,0.244278 c -0.04138,-0.04574 -0.07526,-0.106948 -0.07526,-0.136023 0,-0.08011 1.032917,-0.886542 1.744014,-1.361611 0.728031,-0.486383 1.882673,-1.069681 2.584507,-1.305632 0.469618,-0.157881 1.451776,-0.386529 1.663513,-0.387269 0.1322,-4.56e-4 0.232745,0.191675 0.151513,0.289547 -0.02978,0.03586 -0.191368,0.08861 -0.359098,0.11719 -1.65149,0.281389 -3.260403,1.070316 -5.007537,2.455438 -0.285491,0.226336 -0.543217,0.411519 -0.572731,0.411519 -0.02951,0 -0.08753,-0.03741 -0.12892,-0.08316 z M 4.6729603,65.236842 C 3.8344271,65.019285 2.6238184,64.620309 1.7296616,64.266821 c -3.3004232,-1.30476 -9.6013628,-4.643842 -13.4057236,-7.104156 -4.825287,-3.120552 -8.582662,-6.614066 -11.032931,-10.258139 -0.276912,-0.41183 -0.303602,-0.509592 -0.163257,-0.597977 0.12437,-0.07832 0.203884,-0.0018 0.613248,0.588837 1.569071,2.264547 3.663997,4.499968 6.19632,6.611873 3.087252,2.574709 7.3847884,5.244777 13.2553523,8.235582 2.38032522,1.212678 3.8632596,1.884501 5.4035625,2.448024 0.7676253,0.280832 2.2302781,0.720878 2.7360886,0.823167 0.3372221,0.06819 0.4319882,0.116318 0.4319882,0.219384 0,0.239313 -0.1799852,0.239875 -1.0913493,0.0032 z M -21.022745,64.782667 c -0.05195,-0.05196 -0.08265,-0.125248 -0.06821,-0.162874 0.01443,-0.03764 0.02627,-0.08705 0.02627,-0.109822 0,-0.02275 0.205328,-0.204985 0.456285,-0.404914 1.272426,-1.013701 2.736792,-1.777348 4.235408,-2.208702 0.647233,-0.186298 1.48113,-0.349907 1.684005,-0.330402 0.131401,0.01261 0.149663,0.03042 0.149663,0.145849 0,0.07231 -0.0307,0.14738 -0.06821,0.16683 -0.0375,0.01946 -0.354686,0.08974 -0.704831,0.156191 -1.360066,0.258115 -2.97891,0.922003 -4.138033,1.697005 -0.68242,0.456274 -1.171128,0.847704 -1.218603,0.976035 -0.06972,0.188486 -0.210316,0.218214 -0.353726,0.0748 z m -1.033268,-1.688077 c -0.107648,-0.107648 -0.04898,-0.211089 0.320586,-0.565294 1.565695,-1.500612 3.592226,-2.453673 5.740953,-2.69992 0.250098,-0.02864 0.53658,-0.04545 0.636622,-0.03727 0.174737,0.01421 0.18189,0.02106 0.18189,0.173974 v 0.159155 l -0.318311,0.03216 c -0.751605,0.076 -1.172667,0.145447 -1.733608,0.285947 -1.527325,0.382559 -3.023927,1.201236 -4.134758,2.261816 -0.451585,0.431152 -0.579701,0.50311 -0.693374,0.389438 z M 5.7643096,62.44573 C 3.0720457,61.826233 -0.24735273,60.501463 -4.7399302,58.253489 -11.167657,55.037221 -15.800086,51.785491 -19.559622,47.850821 c -0.97516,-1.020592 -2.460012,-2.78222 -2.460012,-2.918563 0,-0.07588 0.127436,-0.199627 0.205574,-0.199627 0.03444,0 0.312679,0.30907 0.618264,0.686823 2.89158,3.574508 6.655511,6.759957 11.3401646,9.597284 3.9661611,2.40216 9.59992852,5.118565 13.0754858,6.304535 1.1578675,0.395097 3.1089178,0.918426 3.4240449,0.918426 0.1012251,0 0.1632575,0.138732 0.1169068,0.261467 -0.052339,0.138623 -0.1852794,0.131228 -0.9964965,-0.05544 z M -23.109175,61.446105 c -0.09471,-0.114121 -0.01087,-0.231155 0.35157,-0.490938 1.982807,-1.421057 4.17693,-2.436533 6.475649,-2.99704 l 0.596443,-0.145429 0.08359,0.103231 c 0.152966,0.188906 0.05966,0.248951 -0.671078,0.431878 -1.380257,0.345527 -2.435593,0.740913 -3.768562,1.411913 -0.955394,0.480933 -1.482254,0.794955 -2.334696,1.391544 -0.525042,0.367457 -0.635704,0.411971 -0.732919,0.294841 z M 7.7878528,60.342239 C 7.0414546,60.157417 3.4266351,59.084544 2.405755,58.744846 -0.85253371,57.660637 -2.701724,56.821455 -5.5987678,55.112313 -8.888155,53.1717 -11.893586,51.093333 -14.282321,49.107324 c -2.030277,-1.687993 -4.16424,-3.839817 -5.592094,-5.638906 -0.204479,-0.25764 -0.371774,-0.478961 -0.371774,-0.491824 0,-0.08695 0.110918,-0.199298 0.196772,-0.199298 0.07708,0 0.228314,0.155684 0.607392,0.625252 2.754483,3.412004 6.557679,6.668977 11.4034576,9.765662 1.0707298,0.684247 3.1040118,1.908231 4.0034674,2.40998 2.8544662,1.592336 5.745654,2.682178 10.9313038,4.120594 1.2495867,0.346613 1.3380856,0.388657 1.2326991,0.58558 -0.047438,0.08864 -0.1479366,0.105692 -0.3410501,0.05788 z M -23.76172,59.004126 c -0.04225,-0.02366 -0.07683,-0.09329 -0.07683,-0.154761 0,-0.08793 0.08483,-0.174042 0.397884,-0.403854 1.897327,-1.392828 4.33555,-2.355828 6.627678,-2.617666 0.624467,-0.07134 0.859861,-0.05147 0.877772,0.07408 0.02375,0.166377 -0.09616,0.22994 -0.499749,0.264939 -0.823386,0.07141 -1.828799,0.273372 -2.751505,0.552719 -1.321947,0.400218 -3.033205,1.268406 -4.106406,2.083332 -0.30056,0.228227 -0.36848,0.257375 -0.468846,0.201208 z m -0.88625,-1.639125 c -0.166231,-0.166231 -0.03896,-0.270846 1.098014,-0.902603 1.890539,-1.050462 4.402767,-1.89148 6.398793,-2.142108 0.491102,-0.06167 0.588275,-0.04285 0.588275,0.11381 0,0.159082 -0.06765,0.191889 -0.522935,0.253633 -2.277698,0.30887 -4.804964,1.205315 -6.863877,2.434679 -0.510561,0.304854 -0.603659,0.3372 -0.69827,0.242589 z M 8.7200513,56.524289 C 4.6792229,56.220038 1.0654768,55.383857 -2.8300688,53.851726 -6.1247593,52.555908 -9.7399169,50.611371 -11.93256,48.955637 c -0.808654,-0.610644 -1.302533,-1.045739 -4.402959,-3.878886 -1.538124,-1.405527 -2.881458,-2.631388 -2.985187,-2.724139 -0.222818,-0.199226 -0.277391,-0.357902 -0.176207,-0.512329 0.09368,-0.142972 0.272006,-0.143205 0.365525,-4.57e-4 0.03906,0.05962 0.06511,0.130391 0.05789,0.157283 -0.01731,0.06444 5.622466,5.234942 6.572096,6.025252 1.228853,1.022688 2.456422,1.835491 4.4396215,2.93958 4.4359398,2.469578 9.255996,4.16217 13.8488302,4.863104 0.8052605,0.122896 2.1173775,0.267845 2.751108,0.303918 0.5821678,0.03312 0.6820956,0.06457 0.6820956,0.214514 0,0.130866 -0.082762,0.214372 -0.2023543,0.204181 -0.05127,-0.0046 -0.1853023,-0.01489 -0.2978467,-0.02334 z M -24.899585,55.070137 c -0.05207,-0.05208 -0.03316,-0.229026 0.0301,-0.281526 0.159279,-0.132186 3.366612,-1.243114 4.539983,-1.572515 1.720219,-0.482916 2.402429,-0.55017 2.402429,-0.236829 0,0.164139 -0.09082,0.212381 -0.344284,0.182872 -0.467933,-0.05448 -3.082766,0.700514 -5.391297,1.556647 -0.987631,0.36627 -1.17016,0.41812 -1.236929,0.351351 z m 33.4377417,-1.2282 C 5.9013518,53.336442 2.6576347,52.528729 0.19388101,51.764141 -7.0654769,49.511315 -13.210947,46.151135 -17.918304,41.86087 c -0.560607,-0.510935 -0.648654,-0.60963 -0.636617,-0.713609 0.01101,-0.09524 0.04171,-0.123841 0.145561,-0.135695 0.109749,-0.01252 0.18147,0.03371 0.431993,0.278424 0.165217,0.161394 0.568185,0.526868 0.895486,0.812167 6.194644,5.399712 14.5535919,9.151514 25.0061548,11.223674 1.3023279,0.258179 1.2959785,0.256315 1.2959785,0.380357 0,0.223778 -0.1093606,0.245544 -0.6820956,0.135749 z M -24.861306,52.900923 c -0.04631,-0.03385 -0.07095,-0.100965 -0.06154,-0.167611 0.01297,-0.09208 0.112882,-0.159434 0.582697,-0.392905 1.223988,-0.608242 2.308477,-0.830969 4.050764,-0.831928 0.4898,-3.43e-4 0.723869,0.0164 0.761669,0.05418 0.06776,0.06777 0.07138,0.247988 0.0058,0.288524 -0.02681,0.01658 -0.287729,0.02745 -0.579779,0.02416 -0.7385,-0.0083 -1.756831,0.07144 -2.283645,0.178797 -0.561717,0.114468 -1.263971,0.358244 -1.792228,0.622142 -0.561608,0.280557 -0.593081,0.290894 -0.683722,0.224618 z M 8.4472139,52.477988 C 6.5227352,52.261793 5.1543917,52.017332 3.3920422,51.574864 0.30070184,50.798729 -4.0144987,49.255247 -7.1334202,47.810066 c -3.9309238,-1.821435 -6.9713048,-3.807823 -9.6426428,-6.299884 -0.37985,-0.354361 -0.703985,-0.686339 -0.720298,-0.737728 -0.03115,-0.09821 0.08415,-0.268804 0.181712,-0.268804 0.02896,0 0.112755,0.06386 0.186212,0.141916 0.278446,0.295869 1.355379,1.278625 1.9141,1.746709 2.88488,2.4169 6.6093977,4.525996 11.179237,6.330503 0.7086992,0.279845 2.9095919,1.102815 2.9492963,1.102815 0.00603,0 0.00274,-0.06814 -0.00676,-0.151427 -0.01681,-0.143825 0.020784,-0.18812 0.7480655,-0.882421 C 0.0766636,48.389699 0.60541413,47.9029 0.83050299,47.70997 2.5909522,46.201044 4.2974315,45.327548 6.0272437,45.049905 c 0.3772098,-0.06054 0.4789282,-0.02088 0.4555679,0.177587 -0.015257,0.129624 -0.028778,0.134571 -0.6957629,0.254593 -0.531779,0.09569 -1.3828695,0.380659 -1.955335,0.654693 -1.2611298,0.603687 -2.4320158,1.483478 -3.97289881,2.985177 -0.39710306,0.386999 -0.76041263,0.705228 -0.80735259,0.707169 -0.0768644,0.0032 1.69253798,0.619223 1.9950394,0.694607 0.1094702,0.02727 0.1250468,0.018 0.1250468,-0.07447 0,-0.07696 0.1367636,-0.228392 0.5038874,-0.557912 1.0930029,-0.981062 2.2688405,-1.76816 3.5886773,-2.402238 0.6601879,-0.317169 1.8795486,-0.801149 2.0184363,-0.801149 0.094241,0 0.1730465,0.118747 0.1563827,0.23565 -0.012745,0.08931 -0.099553,0.13426 -0.6061128,0.313825 -1.8569877,0.658256 -3.6011158,1.717666 -5.0701225,3.079669 l -0.3410456,0.316206 0.3865192,0.118135 c 1.8668453,0.570579 4.3840482,1.099476 6.0933688,1.280297 1.1459999,0.121228 1.191067,0.129021 1.2453933,0.215277 0.036406,0.05784 0.036452,0.101321 0,0.159155 -0.051284,0.08171 -0.3442522,0.111764 -0.6998922,0.07181 z m -1.6067113,-0.81832 c -0.016673,-0.01667 -0.030331,-0.07634 -0.030331,-0.132598 0,-0.273595 0.9905354,-0.763564 1.8258162,-0.903132 0.173106,-0.02892 0.3114135,0.05072 0.3114135,0.179322 0,0.10139 -0.1344751,0.20463 -0.2665291,0.20463 -0.3329192,0 -1.0309112,0.263052 -1.4064354,0.530038 -0.2020665,0.143661 -0.3660275,0.18966 -0.4339479,0.12174 z M 5.1822469,51.43658 c -0.055016,-0.03855 -0.1000283,-0.09801 -0.1000283,-0.13215 0,-0.09039 0.3127107,-0.346212 0.9256434,-0.757233 0.9531469,-0.639167 1.558095,-0.892211 2.2354993,-0.935104 0.4494926,-0.02846 0.5440485,0.01243 0.514284,0.222366 -0.013795,0.09731 -0.042619,0.106935 -0.4026257,0.134402 -0.7182781,0.05479 -1.347226,0.33344 -2.3633463,1.04705 -0.7720014,0.542171 -0.6939083,0.50158 -0.8094264,0.420669 z M 3.5070716,51.030524 c -0.055619,-0.144931 0.041705,-0.285459 0.4407495,-0.636517 0.6812643,-0.599321 1.4555269,-1.094945 2.2658075,-1.450402 0.4698198,-0.206105 1.3362401,-0.472136 1.6625633,-0.510492 0.2256872,-0.02654 0.2486182,-0.02024 0.3193661,0.08775 0.114294,0.174435 0.029692,0.305178 -0.1931042,0.298454 -0.353685,-0.01069 -1.3569329,0.313053 -2.0468625,0.660499 -0.7009474,0.35299 -1.2148111,0.70879 -1.8577048,1.286262 -0.3653515,0.328182 -0.5368952,0.40496 -0.5908149,0.264442 z m -6.6099778,-2.159859 c -0.1588677,-0.158868 -0.1122429,-0.247381 0.3524151,-0.669027 1.98469307,-1.800976 4.2413236,-3.248815 6.6333061,-4.255882 0.909971,-0.383116 1.2141534,-0.484442 1.3037577,-0.434295 0.090139,0.05044 0.1037147,0.244649 0.020693,0.296088 -0.031245,0.01937 -0.3944811,0.171124 -0.807147,0.337236 -2.4660377,0.992646 -4.58502765,2.297568 -6.5803685,4.05234 -0.3503047,0.30806 -0.5014755,0.469815 -0.4833226,0.517129 0.036452,0.09503 -0.1124165,0.247353 -0.2417572,0.247353 -0.058648,0 -0.1475621,-0.04093 -0.1975808,-0.09094 z M -5.1194011,48.10541 c -0.041385,-0.04573 -0.075261,-0.110087 -0.075261,-0.143008 0,-0.140834 1.5830129,-1.643077 2.5692224,-2.438128 1.4592589,-1.176413 3.07096747,-2.199591 4.7272087,-3.001014 1.4269819,-0.690491 1.6411215,-0.756813 1.7263635,-0.534671 0.044217,0.115199 -0.080903,0.207507 -0.5420935,0.399954 -0.6462511,0.269667 -2.0324506,0.975648 -2.72837335,1.389543 -1.78129725,1.059406 -3.21551475,2.162833 -4.71311665,3.626075 -0.4415581,0.431426 -0.8221481,0.784408 -0.8457597,0.784408 -0.023616,0 -0.0768,-0.03741 -0.1181904,-0.08316 z m -1.8850804,-1.199175 c -0.1152349,-0.11524 -0.036406,-0.225185 0.525215,-0.732485 2.2260711,-2.010766 4.4214367,-3.495222 7.07212341,-4.782001 1.17298269,-0.569423 1.27372359,-0.607926 1.37366509,-0.524982 0.1344431,0.111577 0.063065,0.242502 -0.2038251,0.373871 -0.1375584,0.06771 -0.690053,0.338451 -1.22777036,0.601655 -2.45906244,1.20366 -4.72613984,2.752345 -6.78282784,4.63347 -0.5152341,0.471254 -0.6430628,0.543985 -0.7565802,0.430472 z m -1.9098613,-0.818512 c -0.1445473,-0.144552 -0.061548,-0.258394 0.8662604,-1.188126 0.965421,-0.967426 1.4433351,-1.386208 2.421432,-2.121826 1.7112436,-1.287016 3.6473385,-2.314292 5.83145788,-3.094127 0.31492616,-0.112444 0.42106637,-0.08241 0.42106637,0.119141 0,0.129199 -0.0393298,0.15128 -0.67088139,0.376561 -2.19884176,0.784371 -4.40629856,2.063412 -6.35468126,3.682022 -0.2250934,0.186997 -0.844677,0.776698 -1.3768535,1.310455 -0.5321765,0.533757 -0.9936141,0.970468 -1.0254114,0.970468 -0.031793,0 -0.082378,-0.02457 -0.1123891,-0.05457 z m -1.9647952,-1.295979 c -1.342178,-1.362062 -2.58907,-2.974479 -3.669886,-4.745709 -0.492924,-0.8078 -0.522159,-0.873628 -0.440019,-0.9909 0.136618,-0.195046 0.219124,-0.125979 0.57602,0.482212 1.054463,1.796938 2.239154,3.357938 3.794485,4.999795 0.567171,0.598727 0.6485167,0.702989 0.607807,0.779059 -0.114079,0.213153 -0.181954,0.17216 -0.868407,-0.524457 z m 1.9444862,0.162879 c -0.2201418,-0.123197 -1.7065062,-2.006505 -2.3835362,-3.020077 -0.716433,-1.072557 -1.879704,-3.114207 -1.879704,-3.299057 0,-0.100051 0.09349,-0.178122 0.213308,-0.178122 0.08663,0 0.143483,0.0785 0.337546,0.466097 0.622206,1.242676 1.618205,2.841384 2.471775,3.967514 0.4637403,0.611813 1.2718512,1.590075 1.403855,1.699431 0.175029,0.145004 0.028641,0.471601 -0.1632438,0.364214 z m 0.8842535,-0.804087 c -0.1289981,-0.128998 -0.8587143,-1.148266 -1.3575221,-1.89618 -0.8199276,-1.229411 -2.0165266,-3.244467 -2.0165266,-3.395797 0,-0.09447 0.09474,-0.173828 0.20752,-0.173828 0.07858,0 0.159042,0.109452 0.399684,0.543688 0.711605,1.284088 1.7951749,2.982528 2.6451188,4.146087 0.2370385,0.324509 0.4309833,0.618135 0.4309833,0.652509 0,0.07084 -0.121292,0.20541 -0.1851378,0.20541 -0.023205,0 -0.07908,-0.03686 -0.1241196,-0.08189 z m 1.2383725,-0.771421 c -0.1507369,-0.103724 -1.1350827,-1.507766 -1.6408154,-2.340425 -0.6266183,-1.031678 -1.5951038,-3.087307 -1.538526,-3.265561 0.04038,-0.127184 0.1999927,-0.159607 0.2927124,-0.05946 0.042938,0.04639 0.1562914,0.278735 0.2518797,0.516331 0.5427923,1.349144 1.5155447,3.051078 2.5173902,4.404444 0.2288072,0.309093 0.4160097,0.57876 0.4160097,0.599265 0,0.05639 -0.1356444,0.180296 -0.1965028,0.179506 -0.029463,-3.61e-4 -0.075444,-0.01571 -0.1021478,-0.03412 z m -7.4505802,-0.659179 c -0.302264,-0.306658 -0.746417,-0.802885 -0.987009,-1.102719 -0.440946,-0.549534 -1.040435,-1.399652 -1.040435,-1.475415 0,-0.07043 0.139152,-0.183827 0.225586,-0.183827 0.05385,0 0.18671,0.15456 0.381116,0.443358 0.456979,0.678866 1.007181,1.348528 1.662622,2.023625 0.327511,0.337328 0.59547,0.642593 0.59547,0.678364 0,0.09206 -0.09356,0.174175 -0.198458,0.174175 -0.05404,0 -0.306379,-0.220215 -0.638892,-0.557561 z m 8.1740292,-0.409966 c -0.9029226,-0.950548 -1.8228562,-2.474164 -2.2590104,-3.741442 -0.1691273,-0.491403 -0.1623119,-0.611362 0.034716,-0.611362 0.1388237,0 0.1693876,0.04575 0.318987,0.477467 0.4344093,1.253638 1.1892673,2.517527 2.1319583,3.56962 0.1904731,0.212586 0.3469153,0.408929 0.347637,0.436314 0.00137,0.06054 -0.1466668,0.200308 -0.2124814,0.200308 -0.026128,0 -0.1889246,-0.148905 -0.3618113,-0.330905 z m 1.0393618,-0.693369 c -0.5547328,-0.755452 -1.2748701,-2.055382 -1.7362621,-3.134179 -0.2566212,-0.599996 -0.2752263,-0.767237 -0.087786,-0.789026 0.150175,-0.01745 0.1849506,0.02759 0.3583762,0.464398 0.369184,0.929855 0.8760313,1.88249 1.5315005,2.878526 0.233937,0.355493 0.4253465,0.666089 0.4253465,0.690212 0,0.0663 -0.1342329,0.186778 -0.2081053,0.186778 -0.035858,0 -0.1632392,-0.13352 -0.2830698,-0.296709 z m 0.8328599,-0.715282 c -0.5466933,-0.844362 -1.2569,-2.433756 -1.269078,-2.840123 -0.00562,-0.186567 0.1065924,-0.292845 0.2281767,-0.216154 0.040609,0.02563 0.1622937,0.301753 0.2704164,0.61365 0.2306252,0.66524 0.7182142,1.664445 1.1061129,2.266744 0.2221654,0.344965 0.2659169,0.442677 0.2290492,0.511571 -0.027407,0.05123 -0.094752,0.08507 -0.1690268,0.08494 -0.1056697,-1.88e-4 -0.1626453,-0.06076 -0.3956504,-0.420624 z m 3.33959314,-1.554632 c -0.22694344,-0.300588 -0.23163014,-0.450082 -0.0147544,-0.471172 0.12926302,-0.01256 0.15955747,0.01188 0.3290319,0.265675 0.15060891,0.225541 0.17768755,0.296271 0.1402306,0.36626 -0.0881974,0.164802 -0.25261059,0.106643 -0.45450355,-0.160763 z M 20.886028,69.509149 c 0.02608,-0.08213 -0.136956,-0.264692 -1.054181,-1.180506 L 18.746825,67.245292 13.722071,64.282165 C 10.958456,62.652442 8.672047,61.309254 8.6411678,61.2973 8.6065888,61.28392 8.537371,61.3864 8.4608537,61.564373 8.3925637,61.723218 8.21832,62.094736 8.0736402,62.389974 7.9289605,62.685208 7.810592,62.943857 7.810592,62.964746 c 0,0.02088 0.9464046,0.59621 2.1031209,1.278491 1.1567161,0.682273 3.4025121,2.007829 4.9906541,2.945678 l 2.887529,1.705173 1.386921,0.351972 c 0.762811,0.193589 1.452051,0.35384 1.531647,0.35612 0.109918,0.0032 0.152139,-0.01923 0.175564,-0.09303 z m -53.282877,-2.856677 c 0.477416,-0.185398 0.900597,-0.468878 1.07627,-0.720964 0.115957,-0.166395 0.139285,-0.247741 0.153871,-0.536648 0.01558,-0.308481 0.0037,-0.367846 -0.1257,-0.630794 -0.430244,-0.873946 -1.461744,-1.24254 -3.709741,-1.32564 -1.566642,-0.05791 -3.164158,0.199303 -4.266936,0.687004 -0.883834,0.390872 -0.79998,0.896601 0.236805,1.428192 0.950146,0.487174 1.855325,0.711221 3.984657,0.986274 0.700285,0.09046 1.416485,0.191624 1.59155,0.22481 0.426484,0.08084 0.612924,0.06109 1.059224,-0.112234 z m 52.603636,-7.005187 c 0.72264,-0.07528 1.357673,-0.146726 1.411186,-0.158763 0.106496,-0.02394 0.163463,-0.123863 0.12612,-0.221178 -0.01311,-0.03417 -0.63146,-0.344728 -1.374126,-0.690172 L 19.019662,57.949087 14.426901,57.09802 c -2.526019,-0.468084 -4.5995538,-0.844746 -4.6078537,-0.837026 -0.00831,0.0077 -0.042527,0.23575 -0.076074,0.506728 -0.033529,0.270983 -0.094296,0.684344 -0.1350095,0.918582 -0.0407,0.234243 -0.06787,0.430965 -0.060347,0.437168 0.00754,0.0062 1.3233042,0.252433 2.9239492,0.547182 1.600645,0.294745 3.585534,0.663468 4.410871,0.819385 0.825332,0.155912 1.615322,0.285874 1.755534,0.288802 0.140212,0.0027 0.84618,-0.05628 1.568816,-0.131556 z m -45.50215,-8.28698 c 0.03211,-0.181324 0.124704,-0.601111 0.205789,-0.932866 0.147229,-0.602353 0.147297,-0.603216 0.05124,-0.625156 -0.104706,-0.02389 -15.607892,-2.886949 -15.632741,-2.886958 -0.0084,-9e-6 -0.0079,0.176678 9.14e-4,0.392626 0.01928,0.465056 -0.04716,0.816694 -0.223139,1.180799 -0.07076,0.146406 -0.121644,0.273203 -0.113074,0.281767 0.0086,0.0086 3.521812,0.666487 7.807202,1.462037 4.285395,0.795549 7.803695,1.448921 7.818449,1.451941 0.01475,0.0032 0.05308,-0.142867 0.08518,-0.32419 z m 2.751491,-6.687048 c 0.09933,-0.154921 0.341411,-0.493861 0.537969,-0.753204 0.196558,-0.25934 0.340383,-0.487845 0.319608,-0.507789 -0.04827,-0.04635 -11.674221,-6.902594 -11.761021,-6.935903 -0.0469,-0.018 -0.07992,0.03568 -0.119145,0.193648 -0.117373,0.472752 -0.388671,0.922491 -0.762742,1.264418 l -0.149243,0.136421 5.831517,3.440627 c 3.207338,1.892343 5.851982,3.441266 5.876991,3.442042 0.02503,9.14e-4 0.126741,-0.125334 0.226066,-0.28026 z"
       id="path125" /></g><metadata
     id="metadata181"><rdf:RDF><cc:License
         rdf:about="http://creativecommons.org/publicdomain/zero/1.0/"><cc:permits
           rdf:resource="http://creativecommons.org/ns#Reproduction" /><cc:permits
           rdf:resource="http://creativecommons.org/ns#Distribution" /><cc:permits
           rdf:resource="http://creativecommons.org/ns#DerivativeWorks" /></cc:License><cc:Work
         rdf:about=""><cc:license
           rdf:resource="http://creativecommons.org/publicdomain/zero/1.0/" /><dc:title>Knitting Yarn And Needles</dc:title></cc:Work></rdf:RDF></metadata></svg>
